<svg xmlns="http://www.w3.org/2000/svg" viewBox="0 0 1200 650" role="img" aria-label="H1 2026 margin and administration expense comparison"><rect width="1200" height="650" fill="#f7f1e5"/><text x="70" y="70" font-family="Arial,sans-serif" font-size="34" font-weight="700" fill="#14213d">The gross margin is identical. The overhead is not.</text><text x="70" y="108" font-family="Arial,sans-serif" font-size="19" fill="#5d6470">H1 2026, percent of revenue</text><g font-family="Arial,sans-serif"><text x="70" y="190" font-size="23" font-weight="700" fill="#14213d">Gross margin</text><rect x="300" y="155" width="746" height="44" rx="5" fill="#d8c8a6"/><rect x="300" y="213" width="746" height="44" rx="5" fill="#b58a3b"/><text x="1070" y="187" font-size="22" font-weight="700" fill="#14213d">53.3%</text><text x="1070" y="245" font-size="22" font-weight="700" fill="#14213d">53.3%</text><text x="220" y="185" font-size="18" text-anchor="end" fill="#5d6470">SAHCO</text><text x="220" y="243" font-size="18" text-anchor="end" fill="#5d6470">NAHCO</text><text x="70" y="335" font-size="23" font-weight="700" fill="#14213d">Admin / revenue</text><rect x="300" y="300" width="400" height="44" rx="5" fill="#8f3f36"/><rect x="300" y="358" width="175" height="44" rx="5" fill="#1f6b55"/><text x="720" y="332" font-size="22" font-weight="700" fill="#14213d">28.6%</text><text x="495" y="390" font-size="22" font-weight="700" fill="#14213d">12.5%</text><text x="220" y="330" font-size="18" text-anchor="end" fill="#5d6470">SAHCO</text><text x="220" y="388" font-size="18" text-anchor="end" fill="#5d6470">NAHCO</text><text x="70" y="480" font-size="23" font-weight="700" fill="#14213d">PAT margin</text><rect x="300" y="445" width="234" height="44" rx="5" fill="#d8c8a6"/><rect x="300" y="503" width="430" height="44" rx="5" fill="#1f6b55"/><text x="554" y="477" font-size="22" font-weight="700" fill="#14213d">16.7%</text><text x="750" y="535" font-size="22" font-weight="700" fill="#14213d">30.7%</text><text x="220" y="475" font-size="18" text-anchor="end" fill="#5d6470">SAHCO</text><text x="220" y="533" font-size="18" text-anchor="end" fill="#5d6470">NAHCO</text></g><text x="70" y="625" font-family="Arial,sans-serif" font-size="15" fill="#6b7280">Source: H1 2026 company filings; Seven Gates calculations.</text></svg>