<svg xmlns="http://www.w3.org/2000/svg" viewBox="0 0 1600 900" role="img" aria-labelledby="title desc">
  <title id="title">A large sofa stuck in a narrow doorway</title>
  <desc id="desc">Editorial illustration of a man trying to force an oversized navy sofa through a narrow dark doorway, symbolising a large position meeting a small exit.</desc>
  <rect width="1600" height="900" fill="#F5F0E6"/>
  <rect x="0" y="700" width="1600" height="200" fill="#E7DFD1"/>
  <path d="M0 704H1600" stroke="#CDBFAD" stroke-width="3"/>
  <rect x="1130" y="115" width="275" height="610" rx="4" fill="#D9CDBB"/>
  <rect x="1174" y="155" width="187" height="570" rx="2" fill="#171D23"/>
  <rect x="1202" y="185" width="131" height="540" fill="#0B1015"/>
  <path d="M1174 155H1361V725" fill="none" stroke="#A67C3D" stroke-width="8"/>
  <circle cx="1320" cy="444" r="8" fill="#A67C3D"/>
  <rect x="1161" y="714" width="214" height="17" fill="#1A1F24"/>
  <ellipse cx="823" cy="748" rx="535" ry="50" fill="#B7AA96" opacity=".28"/>
  <g transform="translate(665 476) rotate(-12)">
    <rect x="-310" y="-112" width="760" height="235" rx="44" fill="#172437"/>
    <rect x="-267" y="-72" width="667" height="130" rx="26" fill="#233651"/>
    <rect x="-326" y="-128" width="90" height="265" rx="45" fill="#132033"/>
    <rect x="378" y="-128" width="90" height="265" rx="45" fill="#132033"/>
    <path d="M-263 -45 C-150 -105, 20 -96, 143 -45 C252 -2, 316 -5, 386 -38" fill="none" stroke="#334C70" stroke-width="18" opacity=".85"/>
    <path d="M-235 63 H378" stroke="#0E1724" stroke-width="14" opacity=".75"/>
    <g fill="#A67C3D">
      <circle cx="-278" cy="-90" r="5"/><circle cx="-278" cy="-60" r="5"/><circle cx="-278" cy="-30" r="5"/><circle cx="-278" cy="0" r="5"/><circle cx="-278" cy="30" r="5"/><circle cx="-278" cy="60" r="5"/><circle cx="-278" cy="90" r="5"/>
      <circle cx="420" cy="-90" r="5"/><circle cx="420" cy="-60" r="5"/><circle cx="420" cy="-30" r="5"/><circle cx="420" cy="0" r="5"/><circle cx="420" cy="30" r="5"/><circle cx="420" cy="60" r="5"/><circle cx="420" cy="90" r="5"/>
    </g>
    <path d="M-280 115 v52 h32 l18 -52" fill="#A67C3D"/>
    <path d="M385 115 v52 h32 l18 -52" fill="#A67C3D"/>
  </g>
  <g transform="translate(325 385)">
    <circle cx="0" cy="0" r="43" fill="#5D3E2F"/>
    <path d="M-39 -9 C-30 -50 29 -56 42 -11 C25 -23 -20 -24 -39 -9Z" fill="#17202B"/>
    <path d="M-29 48 C-5 32 28 35 51 55 L110 168 L16 192 L-58 92 Z" fill="#F7F6F2"/>
    <path d="M11 186 L56 338 H4 L-43 212 Z" fill="#1B2940"/>
    <path d="M73 178 L142 324 H91 L27 202 Z" fill="#22344E"/>
    <path d="M1 337 H62 L53 357 H-3 Z" fill="#5C3B2A"/>
    <path d="M89 323 H150 L143 344 H84 Z" fill="#5C3B2A"/>
    <path d="M36 87 L183 181" stroke="#5D3E2F" stroke-width="24" stroke-linecap="round"/>
    <path d="M76 70 L216 150" stroke="#5D3E2F" stroke-width="22" stroke-linecap="round"/>
    <circle cx="185" cy="181" r="16" fill="#5D3E2F"/>
    <circle cx="218" cy="150" r="15" fill="#5D3E2F"/>
  </g>
  <g opacity=".26" stroke="#A67C3D" stroke-width="3">
    <path d="M1424 265 h110"/><path d="M1424 315 h75"/><path d="M1424 365 h125"/>
  </g>
  <rect x="68" y="74" width="110" height="7" fill="#A67C3D"/>
  <rect x="68" y="96" width="68" height="7" fill="#1A1F24" opacity=".75"/>
</svg>