<svg xmlns="http://www.w3.org/2000/svg" width="1200" height="650" viewBox="0 0 1200 650"><rect width="1200" height="650" fill="#FBF8F1"/><rect x="36" y="34" width="1128" height="570" rx="6" fill="none" stroke="#C6BFAE"/><text x="70" y="78" font-family="Arial" font-size="16" font-weight="700" fill="#A67C3D">FIGURE 1 | FIVE-YEAR SHARE-PRICE HISTORY</text><text x="70" y="118" font-family="Georgia" font-size="31" font-weight="700" fill="#1A1F24">Five years of re-rating. Then 2026 changed the slope.</text><text x="70" y="146" font-family="Arial" font-size="14" fill="#46504F">ZENITHBANK, NGN price only; annual reference closes with latest verified close retained</text><line x1="90" y1="500" x2="1100" y2="500" stroke="#C6BFAE"/><line x1="90" y1="150" x2="90" y2="500" stroke="#C6BFAE"/><g font-family="Arial" font-size="13" fill="#46504F"><text x="52" y="505">0</text><text x="42" y="380">50</text><text x="34" y="255">100</text><text x="34" y="160">140</text><text x="100" y="530">2021</text><text x="280" y="530">2022</text><text x="460" y="530">2023</text><text x="640" y="530">2024</text><text x="820" y="530">2025</text><text x="1010" y="530">4 Sep 26</text></g><polyline points="120,437 300,440 480,403 660,386 840,346 1050,178" fill="none" stroke="#1A1F24" stroke-width="5"/><g fill="#A67C3D" stroke="#FBF8F1" stroke-width="3"><circle cx="120" cy="437" r="7"/><circle cx="300" cy="440" r="7"/><circle cx="480" cy="403" r="7"/><circle cx="660" cy="386" r="7"/><circle cx="840" cy="346" r="7"/><circle cx="1050" cy="178" r="9"/></g><g font-family="Arial" font-size="14" font-weight="700" fill="#1A1F24"><text x="98" y="420">25.15</text><text x="278" y="423">24.00</text><text x="458" y="386">38.65</text><text x="638" y="369">45.50</text><text x="818" y="329">61.80</text><text x="1020" y="156">128.60</text></g><text x="70" y="576" font-family="Arial" font-size="12" fill="#46504F">Source: MarketScreener annual reference prices; NGX latest close. Price-only series, no dividends. Annual observations are disclosed as a data-availability exception; no synthetic prices.</text></svg>