<svg xmlns="http://www.w3.org/2000/svg" viewBox="0 0 720 420" role="img" aria-label="Trailing P/E vs 2026 run-rate P/E: Zenith 5.3x/4.4x; GTCO 5.9x/5.9x; Aradel 8.7x/21.6x; MTNN 12.9x/12.8x; NAHCO 17.4x/15.6x">
<rect width="720" height="420" fill="#FBF8F1"/>
<text x="20" y="34" style="font-family:Archivo,Arial,sans-serif;font-weight:700;font-size:20px" fill="#1A1F24">Price is doing more work now.</text>
<text x="20" y="58" style="font-family:Archivo,Arial,sans-serif;font-size:13px" fill="#46504F">Trailing P/E beside the 2026 run-rate. Aradel's cheapness belongs mostly to last year.</text>
<rect x="20" y="72" width="12" height="12" fill="#0E2542"/><text x="38" y="83" style="font-family:Archivo,Arial,sans-serif;font-size:12px" fill="#46504F">Trailing P/E</text>
<rect x="140" y="72" width="12" height="12" fill="#A67C3D"/><text x="158" y="83" style="font-family:Archivo,Arial,sans-serif;font-size:12px" fill="#46504F">2026 run-rate P/E</text>
<line x1="120.0" y1="100" x2="120.0" y2="385" stroke="#C6BFAE" stroke-width="1"/>
<text x="120.0" y="402" text-anchor="middle" style="font-family:Archivo,Arial,sans-serif;font-size:11px" fill="#46504F">0x</text>
<line x1="226.0" y1="100" x2="226.0" y2="385" stroke="#C6BFAE" stroke-width="1"/>
<text x="226.0" y="402" text-anchor="middle" style="font-family:Archivo,Arial,sans-serif;font-size:11px" fill="#46504F">5x</text>
<line x1="332.0" y1="100" x2="332.0" y2="385" stroke="#C6BFAE" stroke-width="1"/>
<text x="332.0" y="402" text-anchor="middle" style="font-family:Archivo,Arial,sans-serif;font-size:11px" fill="#46504F">10x</text>
<line x1="438.0" y1="100" x2="438.0" y2="385" stroke="#C6BFAE" stroke-width="1"/>
<text x="438.0" y="402" text-anchor="middle" style="font-family:Archivo,Arial,sans-serif;font-size:11px" fill="#46504F">15x</text>
<line x1="544.0" y1="100" x2="544.0" y2="385" stroke="#C6BFAE" stroke-width="1"/>
<text x="544.0" y="402" text-anchor="middle" style="font-family:Archivo,Arial,sans-serif;font-size:11px" fill="#46504F">20x</text>
<line x1="650.0" y1="100" x2="650.0" y2="385" stroke="#C6BFAE" stroke-width="1"/>
<text x="650.0" y="402" text-anchor="middle" style="font-family:Archivo,Arial,sans-serif;font-size:11px" fill="#46504F">25x</text>
<text x="20" y="134" style="font-family:Archivo,Arial,sans-serif;font-size:14px" fill="#1A1F24">Zenith</text>
<rect x="120" y="108" width="112.4" height="18" fill="#0E2542"/>
<text x="238.4" y="122" style="font-family:Archivo,Arial,sans-serif;font-weight:700;font-size:12px" fill="#1A1F24">5.3x</text>
<rect x="120" y="130" width="93.3" height="18" fill="#A67C3D"/>
<text x="219.3" y="144" style="font-family:Archivo,Arial,sans-serif;font-weight:700;font-size:12px" fill="#1A1F24">4.4x</text>
<text x="20" y="190" style="font-family:Archivo,Arial,sans-serif;font-size:14px" fill="#1A1F24">GTCO</text>
<rect x="120" y="164" width="125.1" height="18" fill="#0E2542"/>
<text x="251.1" y="178" style="font-family:Archivo,Arial,sans-serif;font-weight:700;font-size:12px" fill="#1A1F24">5.9x</text>
<rect x="120" y="186" width="125.1" height="18" fill="#A67C3D"/>
<text x="251.1" y="200" style="font-family:Archivo,Arial,sans-serif;font-weight:700;font-size:12px" fill="#1A1F24">5.9x</text>
<text x="20" y="246" style="font-family:Archivo,Arial,sans-serif;font-size:14px" fill="#1A1F24">Aradel</text>
<rect x="120" y="220" width="184.4" height="18" fill="#0E2542"/>
<text x="310.4" y="234" style="font-family:Archivo,Arial,sans-serif;font-weight:700;font-size:12px" fill="#1A1F24">8.7x</text>
<rect x="120" y="242" width="457.9" height="18" fill="#A67C3D"/>
<text x="583.9" y="256" style="font-family:Archivo,Arial,sans-serif;font-weight:700;font-size:12px" fill="#1A1F24">21.6x</text>
<text x="20" y="302" style="font-family:Archivo,Arial,sans-serif;font-size:14px" fill="#1A1F24">MTNN</text>
<rect x="120" y="276" width="273.5" height="18" fill="#0E2542"/>
<text x="399.5" y="290" style="font-family:Archivo,Arial,sans-serif;font-weight:700;font-size:12px" fill="#1A1F24">12.9x</text>
<rect x="120" y="298" width="271.4" height="18" fill="#A67C3D"/>
<text x="397.4" y="312" style="font-family:Archivo,Arial,sans-serif;font-weight:700;font-size:12px" fill="#1A1F24">12.8x</text>
<text x="20" y="358" style="font-family:Archivo,Arial,sans-serif;font-size:14px" fill="#1A1F24">NAHCO</text>
<rect x="120" y="332" width="368.9" height="18" fill="#0E2542"/>
<text x="494.9" y="346" style="font-family:Archivo,Arial,sans-serif;font-weight:700;font-size:12px" fill="#1A1F24">17.4x</text>
<rect x="120" y="354" width="330.7" height="18" fill="#A67C3D"/>
<text x="456.7" y="368" style="font-family:Archivo,Arial,sans-serif;font-weight:700;font-size:12px" fill="#1A1F24">15.6x</text>
</svg>